<svg width="22" height="22" viewBox="0 0 22 22" fill="none" xmlns="http://www.w3.org/2000/svg">
<path d="M11.8702 2.79348C12.07 2.27477 12.4223 1.82875 12.8805 1.51417C13.3388 1.1996 13.8817 1.03123 14.4375 1.03125" stroke="white" stroke-linecap="round" stroke-linejoin="round"/>
<path d="M18.7784 14.0021C17.6976 16.6419 15.7356 18.5625 14.0937 18.5625H7.90625C5.5 18.5625 2.40625 14.4375 2.40625 9.96875C2.40626 8.97336 2.69438 7.99925 3.23583 7.16401C3.77727 6.32876 4.5489 5.66809 5.45757 5.26174C6.36624 4.85538 7.3731 4.72072 8.35661 4.87401C9.34013 5.0273 10.2583 5.46198 11.0002 6.12559L11 6.12543C11.5253 5.65568 12.1412 5.29858 12.8098 5.07615C13.4785 4.85371 14.1856 4.77068 14.8876 4.83217C15.5895 4.89367 16.2715 5.09838 16.8912 5.43367C17.511 5.76896 18.0555 6.22772 18.4911 6.78164L18.4911 6.78165C17.8596 7.16352 17.3421 7.70773 16.9925 8.35758C16.6429 9.00742 16.4739 9.73914 16.5033 10.4765C16.5326 11.2138 16.7591 11.9298 17.1591 12.5499C17.5592 13.1699 18.1183 13.6714 18.778 14.0019L18.7784 14.0021Z" stroke="white" stroke-linecap="round" stroke-linejoin="round"/>
</svg>
