<svg width="25" height="24" viewBox="0 0 25 24" fill="none" xmlns="http://www.w3.org/2000/svg">
<path d="M5.64404 9.74994C5.6428 8.86045 5.81762 7.97951 6.15843 7.1579C6.49924 6.33628 6.9993 5.59025 7.62977 4.9628C8.26025 4.33535 9.00868 3.83889 9.83193 3.50204C10.6552 3.16519 11.5369 2.99461 12.4264 3.00013C16.138 3.02772 19.1067 6.11275 19.1067 9.83468V10.4999C19.1067 13.8577 19.8092 15.8061 20.4279 16.871C20.4946 16.9848 20.5301 17.1142 20.5308 17.246C20.5315 17.3779 20.4974 17.5076 20.4319 17.6221C20.3665 17.7366 20.2721 17.8318 20.1581 17.8982C20.0441 17.9645 19.9147 17.9996 19.7828 17.9999H4.96722C4.83534 17.9996 4.70587 17.9645 4.59189 17.8981C4.4779 17.8318 4.38344 17.7366 4.31801 17.622C4.25259 17.5075 4.21852 17.3778 4.21925 17.2459C4.21998 17.114 4.25548 16.9846 4.32216 16.8709C4.94122 15.8059 5.64404 13.8575 5.64404 10.4999L5.64404 9.74994Z" stroke="#8E8E93" stroke-linecap="round" stroke-linejoin="round"/>
<path d="M9.375 18V18.75C9.375 19.5456 9.69107 20.3087 10.2537 20.8713C10.8163 21.4339 11.5794 21.75 12.375 21.75C13.1706 21.75 13.9337 21.4339 14.4963 20.8713C15.0589 20.3087 15.375 19.5456 15.375 18.75V18" stroke="#8E8E93" stroke-linecap="round" stroke-linejoin="round"/>
</svg>
