<svg width="22" height="22" viewBox="0 0 22 22" fill="none" xmlns="http://www.w3.org/2000/svg">
<path d="M11.625 5.5C11.625 5.84518 11.3452 6.125 11 6.125C10.6548 6.125 10.375 5.84518 10.375 5.5C10.375 5.15482 10.6548 4.875 11 4.875C11.3452 4.875 11.625 5.15482 11.625 5.5Z" fill="white" stroke="white" stroke-width="0.125"/>
<path d="M11.625 11C11.625 11.3452 11.3452 11.625 11 11.625C10.6548 11.625 10.375 11.3452 10.375 11C10.375 10.6548 10.6548 10.375 11 10.375C11.3452 10.375 11.625 10.6548 11.625 11Z" fill="white" stroke="white" stroke-width="0.125"/>
<path d="M11 17.1875C11.3797 17.1875 11.6875 16.8797 11.6875 16.5C11.6875 16.1203 11.3797 15.8125 11 15.8125C10.6203 15.8125 10.3125 16.1203 10.3125 16.5C10.3125 16.8797 10.6203 17.1875 11 17.1875Z" fill="white"/>
</svg>
