<svg width="22" height="22" viewBox="0 0 22 22" fill="none" xmlns="http://www.w3.org/2000/svg">
<path d="M11.0005 18.5625C11.0005 18.5625 2.40674 13.75 2.40674 7.90626C2.40691 6.8734 2.7648 5.87249 3.41955 5.07368C4.0743 4.27488 4.9855 3.7275 5.99823 3.5246C7.01096 3.3217 8.0627 3.47581 8.97464 3.96072C9.88659 4.44564 10.6024 5.23143 11.0005 6.1845L11.0005 6.18451C11.3985 5.23144 12.1144 4.44564 13.0263 3.96073C13.9383 3.47581 14.99 3.3217 16.0027 3.5246C17.0155 3.7275 17.9267 4.27488 18.5814 5.07368C19.2362 5.87249 19.5941 6.8734 19.5942 7.90626C19.5942 13.75 11.0005 18.5625 11.0005 18.5625Z" stroke="white" stroke-linecap="round" stroke-linejoin="round"/>
</svg>
