<svg width="22" height="22" viewBox="0 0 22 22" fill="none" xmlns="http://www.w3.org/2000/svg">
<path d="M19.25 15.2383V6.76123C19.25 6.63924 19.2175 6.51945 19.156 6.41415C19.0944 6.30885 19.0059 6.22183 18.8996 6.16202L11.3371 1.90812C11.2341 1.85023 11.1181 1.81982 11 1.81982C10.8819 1.81982 10.7659 1.85023 10.6629 1.90812L3.10045 6.16202C2.99412 6.22183 2.90563 6.30885 2.84404 6.41415C2.78246 6.51945 2.75 6.63924 2.75 6.76123V15.2383C2.75 15.3603 2.78246 15.4801 2.84404 15.5854C2.90563 15.6907 2.99412 15.7777 3.10045 15.8375L10.6629 20.0914C10.7659 20.1493 10.8819 20.1797 11 20.1797C11.1181 20.1797 11.2341 20.1493 11.3371 20.0914L18.8996 15.8375C19.0059 15.7777 19.0944 15.6907 19.156 15.5854C19.2175 15.4801 19.25 15.3603 19.25 15.2383Z" stroke="black" stroke-linecap="round" stroke-linejoin="round"/>
<path d="M15.2128 13.1064V8.63766L6.875 4.03906" stroke="black" stroke-linecap="round" stroke-linejoin="round"/>
<path d="M19.1552 6.41346L11.0816 11.0002L2.84521 6.4126" stroke="black" stroke-linecap="round" stroke-linejoin="round"/>
<path d="M11.0815 11L11.0009 20.18" stroke="black" stroke-linecap="round" stroke-linejoin="round"/>
</svg>
