<svg width="22" height="22" viewBox="0 0 22 22" fill="none" xmlns="http://www.w3.org/2000/svg">
<path d="M11.3791 16.3911L15.7134 19.1371C16.2674 19.4881 16.9553 18.9661 16.7909 18.3194L15.5386 13.3932C15.5033 13.256 15.5075 13.1116 15.5507 12.9767C15.5938 12.8418 15.6741 12.7217 15.7825 12.6304L19.6692 9.39545C20.1799 8.97039 19.9163 8.12283 19.2601 8.08024L14.1843 7.75082C14.0476 7.74105 13.9165 7.69265 13.8062 7.61124C13.6959 7.52984 13.6111 7.41878 13.5615 7.291L11.6684 2.52379C11.617 2.38817 11.5255 2.27141 11.4061 2.18902C11.2867 2.10663 11.1451 2.0625 11 2.0625C10.8549 2.0625 10.7133 2.10663 10.5939 2.18902C10.4746 2.27141 10.3831 2.38817 10.3316 2.52379L8.43854 7.291C8.38894 7.41878 8.30406 7.52984 8.19379 7.61124C8.08351 7.69265 7.95238 7.74105 7.81567 7.75082L2.73986 8.08024C2.08372 8.12283 1.82013 8.97039 2.33083 9.39545L6.21755 12.6304C6.32587 12.7217 6.40621 12.8418 6.44935 12.9767C6.49249 13.1116 6.49667 13.256 6.4614 13.3932L5.30006 17.9617C5.10278 18.7377 5.92822 19.3642 6.59306 18.943L10.6209 16.3911C10.7342 16.319 10.8657 16.2807 11 16.2807C11.1343 16.2807 11.2658 16.319 11.3791 16.3911V16.3911Z" stroke="black" stroke-linecap="round" stroke-linejoin="round"/>
</svg>
