<svg width="22" height="22" viewBox="0 0 22 22" fill="none" xmlns="http://www.w3.org/2000/svg">
<path d="M11 19.25C15.5563 19.25 19.25 15.5563 19.25 11C19.25 6.44365 15.5563 2.75 11 2.75C6.44365 2.75 2.75 6.44365 2.75 11C2.75 15.5563 6.44365 19.25 11 19.25Z" stroke="black" stroke-linecap="round" stroke-linejoin="round"/>
<path d="M11 13.75C12.8985 13.75 14.4375 12.211 14.4375 10.3125C14.4375 8.41402 12.8985 6.875 11 6.875C9.10152 6.875 7.5625 8.41402 7.5625 10.3125C7.5625 12.211 9.10152 13.75 11 13.75Z" stroke="black" stroke-linecap="round" stroke-linejoin="round"/>
<path d="M5.48279 17.1337C6.00066 16.1155 6.79017 15.2605 7.76394 14.6633C8.7377 14.0661 9.85773 13.75 11 13.75C12.1424 13.75 13.2624 14.0661 14.2362 14.6633C15.2099 15.2605 15.9994 16.1155 16.5173 17.1337" stroke="black" stroke-linecap="round" stroke-linejoin="round"/>
</svg>
